# xmcd CD database file
#
# Track frame offsets:
#	150
#	19215
#	32171
#	48576
#	66141
#	77631
#	89850
#	103149
#	117789
#	133317
#	147208
#	160663
#
# Disc length: 2283 seconds
#
# Revision: 0
# Processed by: cddbd v1.5PL3 Copyright (c) Steve Scherf et al.
# Submitted via: CDex 1.50beta8
#
DISCID=a908e90c
DTITLE=DJANGO REINHARDT - DJANGOLOGY
DYEAR=1900
DGENRE=Jazz
TTITLE0=MINOR SWING 01
TTITLE1=BEYOND THE SEA(LA MER) 02
TTITLE2=BRICK TOP 03
TTITLE3=HONEYSUCKLE 04
TTITLE4=HEAVY ARTILLERY(ARTILLERIE LOURDE) 05
TTITLE5=DJANGOLOGY 06
TTITLE6=AFTER YOU'VE GONE 07
TTITLE7=OU ES-TU MON AMOUR?(Where are you my love?) 08
TTITLE8=I SAW STARS 09
TTITLE9=LOVER MAN 10
TTITLE10=MENILMONTANT 11
TTITLE11=SWING 42 12
EXTD=
EXTT0=
EXTT1=
EXTT2=
EXTT3=
EXTT4=
EXTT5=
EXTT6=
EXTT7=
EXTT8=
EXTT9=
EXTT10=
EXTT11=
PLAYORDER=
